PathFileType	4	(X/Y/Z)	C:/Users/opensim2020/Desktop/walking_exp_matlab/subject01_walking08_straight_03.trc	
DataRate	CameraRate	NumFrames	NumMarkers	Units	OrigDataRate	OrigDataStartFrame	OrigNumFrames	
100.00	100.00	6	43	mm	100.00	2913	326	
Frame#	Time	LFHD			RFHD			LBHD			RBHD			C7			T10			CLAV			STRN			RBAK			LSHO			LUPA			LELB			LFRM			LWRA			LWRB			LFIN			RSHO			RUPA			RELB			RFRM			RWRA			RWRB			RFIN			LASI			RASI			LPSI			RPSI			LTHI			LKNE			LTIB			LANK			LHEE			LTOE			RTHI			RKNE			RTIB			RANK			RHEE			RTOE			*39			*40			*41			*42			
		X1	Y1	Z1	X2	Y2	Z2	X3	Y3	Z3	X4	Y4	Z4	X5	Y5	Z5	X6	Y6	Z6	X7	Y7	Z7	X8	Y8	Z8	X9	Y9	Z9	X10	Y10	Z10	X11	Y11	Z11	X12	Y12	Z12	X13	Y13	Z13	X14	Y14	Z14	X15	Y15	Z15	X16	Y16	Z16	X17	Y17	Z17	X18	Y18	Z18	X19	Y19	Z19	X20	Y20	Z20	X21	Y21	Z21	X22	Y22	Z22	X23	Y23	Z23	X24	Y24	Z24	X25	Y25	Z25	X26	Y26	Z26	X27	Y27	Z27	X28	Y28	Z28	X29	Y29	Z29	X30	Y30	Z30	X31	Y31	Z31	X32	Y32	Z32	X33	Y33	Z33	X34	Y34	Z34	X35	Y35	Z35	X36	Y36	Z36	X37	Y37	Z37	X38	Y38	Z38	X39	Y39	Z39	X40	Y40	Z40	X41	Y41	Z41	X42	Y42	Z42	X43	Y43	Z43	

204	2.030	-1029.13306	369.39377	1677.07202	-916.52167	391.42557	1680.37292	-1013.08704	252.83015	1635.43311	-893.71313	272.75095	1638.26892	-973.58850	216.17447	1437.13953	-963.52386	189.79631	1141.71094	-978.18182	361.14532	1372.89172	-988.05060	408.87885	1219.86292	-894.49243	170.98340	1239.01501	-1137.55688	296.57385	1402.45581	-1221.93713	270.10022	1217.69666	-1222.66162	260.84299	1066.07190	-1246.58643	308.29834	961.50385	-1227.74133	397.15497	854.43927	-1252.00049	343.15677	844.30426	-1259.97107	397.01471	778.74121	-823.84772	303.46265	1395.62451	-721.70520	268.08209	1190.09045	-722.31232	278.65167	1065.27075	-696.45709	319.58505	951.40656	-723.75629	409.51279	843.90411	-681.62610	369.67065	840.17340	-687.53363	414.33371	767.17590	-1082.29883	359.10815	938.26367	-865.32135	377.06741	941.52325	-1016.90686	177.26462	945.82159	-872.63354	190.12279	951.14972	-1152.04736	382.57870	612.97070	-1145.29626	393.20834	480.96594	-1141.15063	254.07803	362.49152	-1082.28259	104.92502	207.28024	-1019.96021	61.52284	207.44603	-1107.83350	183.07979	83.88723	-816.23065	340.09827	606.02100	-848.92261	355.92044	448.78116	-843.79529	307.25757	278.03287	-900.99506	285.34354	75.37450	-950.64343	234.90187	36.99434	-908.59717	426.22757	37.85962	-936.99683	378.60553	1714.78918	-3102.08154	1973.01282	1023.92499	-3140.67920	2012.48450	1021.92157			 
205	2.040	-1028.74707	376.50681	1676.99280	-916.14081	398.49368	1680.28882	-1012.61725	259.74893	1635.84070	-893.15204	279.79810	1638.68359	-972.91235	222.43935	1437.49719	-962.64392	195.76974	1142.06958	-977.63013	367.27548	1373.08325	-987.45331	414.88696	1220.02185	-893.65118	177.17661	1239.33838	-1136.92419	302.55566	1402.70557	-1221.23376	275.10434	1217.95313	-1221.58801	264.72342	1066.50562	-1245.71924	310.56638	961.41559	-1227.13855	397.75348	852.87189	-1251.31848	343.57281	843.64502	-1259.44714	396.36758	777.13916	-823.21631	309.60367	1395.97766	-720.96777	274.75018	1190.32605	-721.15869	286.14856	1065.66809	-695.28687	328.17450	952.17688	-722.72589	419.10745	845.64648	-680.50824	379.34955	841.46265	-686.31268	424.67517	768.81671	-1081.58032	364.90643	938.89917	-864.55304	382.64905	941.44141	-1016.43915	183.06441	946.09735	-872.17163	195.76514	951.07037	-1151.77966	392.76566	614.92798	-1144.65576	405.11368	482.95663	-1140.82178	268.28375	361.50626	-1082.18359	122.56763	202.54945	-1019.94067	78.86738	201.13203	-1108.01050	205.00404	82.46883	-816.08337	343.51508	605.68884	-848.47931	357.97595	448.41962	-843.57098	308.69995	277.96930	-901.09912	285.24948	75.40565	-950.83112	234.64508	37.36483	-908.58765	426.32285	37.84359	-936.81976	385.71576	1714.54053	-3101.99121	1973.04248	1023.35443	-3140.81396	2012.43958	1022.01904			 
206	2.050	-1028.48865	383.57257	1676.93420	-915.79993	405.62262	1680.22791	-1012.27728	266.66077	1636.20276	-892.85736	286.69754	1639.06799	-972.25537	228.68633	1437.77051	-961.74115	201.75612	1142.41882	-977.08777	373.39685	1373.23462	-986.86884	420.86838	1220.09448	-892.69397	183.21077	1239.74109	-1136.31384	308.53772	1402.87195	-1220.48511	280.13010	1218.17957	-1220.67334	268.61600	1066.91248	-1244.94373	312.84302	961.33630	-1226.59863	398.46072	851.37213	-1250.69653	344.03104	843.05237	-1258.77795	395.80792	775.62683	-822.59143	315.96997	1396.31824	-720.23401	281.24811	1190.57581	-720.14008	293.59811	1065.96130	-694.24353	336.79916	952.86938	-721.60559	428.65833	847.18799	-679.45447	388.99911	842.66602	-685.23553	435.14001	770.64954	-1080.94067	370.71347	939.45795	-863.88776	388.26416	941.29126	-1016.01672	188.84691	946.39282	-871.73517	201.46887	951.12207	-1151.43433	402.78580	616.92377	-1144.17090	416.61761	484.89676	-1140.55457	282.58282	359.77051	-1082.29553	140.86298	197.10887	-1020.00818	96.74994	193.94727	-1108.43970	228.03481	80.70068	-815.84845	347.09875	605.52887	-848.54126	360.15723	448.20782	-843.53467	310.03070	277.93393	-901.05042	285.16125	75.16573	-950.60114	234.95547	37.27515	-908.61285	426.34738	37.77282	-936.44159	393.09970	1714.69470	-3101.89697	1973.18726	1023.43256	-3140.85229	2012.58154	1022.04016			 
207	2.060	-1028.10815	390.58649	1676.76721	-915.57751	412.69635	1680.11096	-1011.99066	273.52374	1636.50073	-892.51648	293.59622	1639.40027	-971.67139	234.90579	1438.00391	-960.85956	207.73116	1142.63586	-976.61737	379.57819	1373.34607	-986.40796	426.88681	1220.16809	-891.82190	188.96758	1240.03186	-1135.80078	314.56256	1403.07129	-1219.86121	285.18781	1218.35461	-1219.78088	272.59589	1067.39441	-1244.16345	315.20828	961.22070	-1226.11499	399.26175	849.93073	-1250.15710	344.61929	842.48285	-1258.31702	395.26044	774.15295	-822.02112	322.24118	1396.61401	-719.54071	287.57651	1190.84656	-719.05750	300.90057	1066.32813	-693.17871	345.17188	953.61749	-720.57111	438.29495	848.90051	-678.56964	398.55841	843.85321	-684.24591	445.49286	772.38892	-1080.31445	376.48904	939.91339	-863.33820	393.89139	941.06439	-1015.60413	194.72243	946.66711	-871.34906	207.13275	951.12061	-1150.89917	412.68118	618.60779	-1143.47314	427.86029	486.66489	-1140.41125	297.03455	357.70398	-1082.54419	159.69482	191.08734	-1020.34998	115.49064	186.12862	-1109.16907	251.23372	78.51771	-815.66180	350.58682	605.31714	-848.45532	362.14603	447.70300	-843.24670	311.18298	277.82669	-901.16455	285.23077	75.31008	-950.64740	234.92220	37.36934	-908.62659	426.40057	37.77192	-936.20306	400.24319	1714.61023	-3101.91211	1973.08569	1023.46198	-3140.71436	2012.61304	1022.11963			 
208	2.070	-1027.99487	397.55447	1676.62000	-915.34857	419.66806	1679.98865	-1011.64709	280.41296	1636.68140	-892.17651	300.48230	1639.73767	-971.05353	241.26100	1438.21411	-960.01392	213.72302	1142.85510	-976.24774	385.77240	1373.40515	-985.93097	432.91138	1220.14478	-890.78278	195.14970	1240.36633	-1135.33960	320.57599	1403.14001	-1219.21680	290.28445	1218.48877	-1218.81799	276.47879	1067.62769	-1243.40527	317.62631	961.12738	-1225.61511	400.02786	848.45862	-1249.59436	345.30518	841.94244	-1257.67114	394.86719	772.75116	-821.56055	328.60065	1396.88196	-718.90942	294.00140	1191.11865	-718.08209	308.13614	1066.58325	-692.24878	353.56320	954.22821	-719.76556	447.79703	850.72601	-677.64343	408.06781	845.19189	-683.34802	455.79672	774.19751	-1079.80127	382.31927	940.30133	-862.83319	399.56940	940.81537	-1015.29938	200.39754	946.99640	-871.00348	212.86932	951.32758	-1150.48547	422.21445	620.49677	-1142.83362	438.84155	488.32278	-1140.20471	311.61673	354.98712	-1082.86572	179.16577	184.48294	-1020.66553	134.83461	177.41515	-1110.17114	275.16486	76.31371	-815.55634	354.06055	605.11841	-848.27216	364.12140	447.37689	-843.42682	312.49957	277.66031	-901.22186	285.32129	75.36829	-950.95654	233.76880	37.78284	-908.64221	426.42697	37.73577	-936.31305	407.23590	1714.44775	-3101.90771	1973.13647	1023.35358	-3140.75537	2012.56189	1022.08026			 
209	2.080	-1027.88171	404.51547	1676.35925	-915.28802	426.61121	1679.83630	-1011.66382	287.19159	1636.82715	-892.10315	307.32996	1639.91992	-970.46765	247.56908	1438.32190	-959.13135	219.80659	1142.99988	-975.84399	392.03464	1373.36877	-985.55310	438.98477	1220.06616	-889.89374	201.47176	1240.60120	-1134.89124	326.65302	1403.14624	-1218.70398	295.41876	1218.55481	-1217.98486	280.52945	1068.00281	-1242.72925	320.12775	960.94861	-1225.25146	401.15268	847.22717	-1249.07544	346.10379	841.41333	-1257.20605	394.61401	771.42035	-821.11060	335.03735	1397.10803	-718.25098	300.45096	1191.35815	-717.17365	315.25342	1066.80701	-691.34424	361.76370	954.86505	-718.93085	457.12726	852.26666	-676.88580	417.52023	846.37915	-682.53619	466.09061	776.04077	-1079.27966	388.07800	940.56110	-862.36987	405.15109	940.46295	-1015.02509	206.16469	947.23846	-870.71179	218.57043	951.47345	-1150.29175	431.48462	621.94708	-1142.04041	449.52051	489.80289	-1140.40540	326.21036	352.16919	-1083.29553	199.18124	177.30075	-1021.15820	154.84352	168.24820	-1111.43372	299.61664	73.73816	-815.43250	357.50189	604.78638	-848.16528	366.23495	447.14243	-843.53503	313.58875	277.48566	-901.36963	285.46262	75.48244	-951.03186	233.83815	37.95675	-908.68842	426.50214	37.73613	-936.33331	414.22745	1714.24402	-3101.88940	1973.16846	1023.51086	-3140.83862	2012.48657	1021.99902			 
